# xmcd CD database file
#
# Track frame offsets:
#	150
#	10765
#	27216
#	51266
#	63830
#	78934
#	99871
#	112375
#	134906
#	151656
#	173941
#	176737
#	211021
#	228566
#
# Disc length: 3259 seconds
#
# Revision: 0
# Processed by: cddbd v1.5.2PL0 Copyright (c) Steve Scherf et al.
# Submitted via: Feurio! 1.68 - http://www.feurio.com
#
DISCID=b40cb90e
DTITLE=Stevie Ray Vaughan and Double Trouble - Texas Flood
DYEAR=1983
DGENRE=Blues
TTITLE0=Love Struck Baby
TTITLE1=Pride and Joy
TTITLE2=Texas Flood
TTITLE3=Tell Me
TTITLE4=Testify
TTITLE5=Rude Mood
TTITLE6=Mary Had a Little Lamb
TTITLE7=Dirty Pool
TTITLE8=I'm Crying
TTITLE9=Lenny
TTITLE10=SRV Speaks
TTITLE11=Tin Pan Alley (aka Roughest Place in Town)
TTITLE12=Testify (live)
TTITLE13=Mary Had a Little Lamb (live)
EXTD=Gerd
EXTT0=
EXTT1=
EXTT2=
EXTT3=
EXTT4=
EXTT5=
EXTT6=
EXTT7=
EXTT8=
EXTT9=
EXTT10=
EXTT11=
EXTT12=
EXTT13=
PLAYORDER=
